<svg xmlns="http://www.w3.org/2000/svg" width="67.983" height="51.966" viewBox="0 0 67.983 51.966">
  <g id="Group_1" data-name="Group 1" transform="translate(-8.116 -266.5)">
    <path id="Path_9" data-name="Path 9" d="M69.415,308.228C83.171,284.4,103.8,286.991,103.8,286.991" transform="translate(-60 -11.32)" fill="none" stroke="#000000" stroke-width="1"/>
    <path id="Path_10" data-name="Path 10" d="M69.415,308.228C83.171,284.4,103.8,286.991,103.8,286.991" transform="translate(-60 -11.32)" fill="none" stroke="#000000" stroke-width="3"/>
    <path id="Path_11" data-name="Path 11" d="M103.8,308.228C90.045,284.4,69.415,286.991,69.415,286.991" transform="translate(-29 -11.32)" fill="none" stroke="#000000" stroke-width="3"/>
    <g id="Ellipse_2" data-name="Ellipse 2" transform="translate(28 283)" fill="#fff" stroke="#000000" stroke-width="3">
      <circle cx="14" cy="14" r="14" stroke="none"/>
      <circle cx="14" cy="14" r="12.5" fill="none"/>
    </g>
    <path id="Path_15" data-name="Path 15" d="M69.415,286.908c13.755,23.825,34.385,21.238,34.385,21.238" transform="translate(-60 8.68)" fill="none" stroke="#000000" stroke-width="3"/>
    <path id="Path_16" data-name="Path 16" d="M103.8,286.908c-13.755,23.825-34.385,21.238-34.385,21.238" transform="translate(-29 8.68)" fill="none" stroke="#000000" stroke-width="3"/>
    <line id="Line_1" data-name="Line 1" y2="8" transform="translate(42.5 266.5)" fill="none" stroke="#000000" stroke-width="3"/>
    <path id="Path_17" data-name="Path 17" d="M0,0V8" transform="matrix(0.891, 0.454, -0.454, 0.891, 62.632, 272.024)" fill="none" stroke="#000000" stroke-width="3"/>
    <line id="Line_3" data-name="Line 3" y1="8" transform="matrix(-0.891, 0.454, -0.454, -0.891, 26, 279.152)" fill="none" stroke="#000000" stroke-width="3"/>
  </g>
</svg>
